<svg width="71" height="72" viewBox="0 0 71 72" fill="none" xmlns="http://www.w3.org/2000/svg">
<path fill-rule="evenodd" clip-rule="evenodd" d="M20.709 21V30H17.7507C14.5901 30 11.834 32.3291 11.834 35.5V60.5C11.834 63.6709 14.5901 66 17.7507 66H53.2507C56.4112 66 59.1673 63.6709 59.1673 60.5V35.5C59.1673 32.3291 56.4112 30 53.2507 30H50.2923V21C50.2923 12.7157 43.6699 6 35.5007 6C27.3314 6 20.709 12.7157 20.709 21ZM44.3757 21V30H26.6257V21C26.6257 16.0294 30.5991 12 35.5007 12C40.4022 12 44.3757 16.0294 44.3757 21ZM17.7507 60V36H53.2506V60H17.7507ZM38.459 48C38.459 49.6568 37.1345 51 35.5007 51C33.8668 51 32.5423 49.6568 32.5423 48C32.5423 46.3431 33.8668 45 35.5007 45C37.1345 45 38.459 46.3431 38.459 48Z" fill="#19295A"/>
</svg>
