<svg width="67" height="68" viewBox="0 0 67 68" fill="none" xmlns="http://www.w3.org/2000/svg">
<path fill-rule="evenodd" clip-rule="evenodd" d="M33.4993 65.1663C16.5396 65.1663 2.79102 51.2125 2.79102 33.9997C2.79102 16.7868 16.5396 2.83301 33.4993 2.83301C50.4591 2.83301 64.2077 16.7868 64.2077 33.9997C64.2077 51.2125 50.4591 65.1663 33.4993 65.1663ZM54.1563 48.5195C56.9734 44.3989 58.6244 39.395 58.6244 33.9997C58.6244 19.9164 47.3755 8.49967 33.4994 8.49967C19.6232 8.49967 8.37435 19.9164 8.37435 33.9997C8.37435 39.395 10.0253 44.3989 12.8424 48.5195C15.9843 44.3075 23.3673 42.4997 33.4994 42.4997C43.6314 42.4997 51.0144 44.3075 54.1563 48.5195ZM50.1508 53.0957C49.3337 50.1138 43.4639 48.1663 33.4994 48.1663C23.5348 48.1663 17.665 50.1138 16.8479 53.0957C21.2811 57.0805 27.1118 59.4997 33.4994 59.4997C39.8869 59.4997 45.7176 57.0805 50.1508 53.0957ZM33.4993 16.9997C26.741 16.9997 22.3327 21.9743 22.3327 28.333C22.3327 38.0439 27.2484 42.4997 33.4993 42.4997C39.6915 42.4997 44.666 38.1919 44.666 28.8997C44.666 22.4441 40.239 16.9997 33.4993 16.9997ZM27.916 28.333C27.916 34.7626 30.2002 36.833 33.4993 36.833C36.7871 36.833 39.0827 34.8451 39.0827 28.8997C39.0827 25.3592 36.8931 22.6663 33.4993 22.6663C29.9644 22.6663 27.916 24.9778 27.916 28.333Z" fill="#19295A"/>
</svg>
