<svg width="87" height="86" viewBox="0 0 87 86" fill="none" xmlns="http://www.w3.org/2000/svg">
<g id="ant-design:cloud-upload-outlined">
<path id="Vector" d="M44.0256 38.4669C43.9632 38.3872 43.8835 38.3227 43.7925 38.2783C43.7014 38.234 43.6015 38.2109 43.5002 38.2109C43.3989 38.2109 43.299 38.234 43.208 38.2783C43.1169 38.3227 43.0372 38.3872 42.9748 38.4669L33.6337 50.285C33.5567 50.3834 33.5089 50.5014 33.4959 50.6256C33.4828 50.7498 33.5049 50.8752 33.5597 50.9874C33.6145 51.0997 33.6998 51.1942 33.8058 51.2603C33.9118 51.3263 34.0343 51.3612 34.1592 51.3609H40.3226V71.5776C40.3226 71.9446 40.6228 72.2448 40.9898 72.2448H45.9939C46.3609 72.2448 46.6612 71.9446 46.6612 71.5776V51.3693H52.8413C53.4001 51.3693 53.7086 50.7271 53.3667 50.2934L44.0256 38.4669Z" fill="black"/>
<path id="Vector_2" d="M68.4715 30.7695C64.6517 20.6945 54.9187 13.5303 43.5176 13.5303C32.1165 13.5303 22.3835 20.6862 18.5637 30.7612C11.4161 32.6377 6.13672 39.1514 6.13672 46.8912C6.13672 56.1071 13.6012 63.5716 22.8088 63.5716H26.1533C26.5202 63.5716 26.8205 63.2714 26.8205 62.9044V57.9003C26.8205 57.5333 26.5202 57.233 26.1533 57.233H22.8088C19.9982 57.233 17.3543 56.1155 15.386 54.0888C13.4261 52.0704 12.3835 49.3515 12.4753 46.5325C12.5504 44.3307 13.301 42.2623 14.6604 40.5192C16.0532 38.7428 18.0049 37.45 20.1733 36.8746L23.3343 36.0489L24.4936 32.9964C25.2108 31.0948 26.2116 29.3183 27.471 27.7087C28.7143 26.1132 30.187 24.7108 31.8413 23.5469C35.2691 21.1366 39.3058 19.8605 43.5176 19.8605C47.7294 19.8605 51.7661 21.1366 55.1939 23.5469C56.8536 24.7145 58.3215 26.1157 59.5642 27.7087C60.8236 29.3183 61.8244 31.1031 62.5416 32.9964L63.6926 36.0405L66.8452 36.8746C71.3656 38.0922 74.5266 42.204 74.5266 46.8912C74.5266 49.6518 73.4507 52.2539 71.499 54.2055C70.542 55.1682 69.4034 55.9315 68.1493 56.4512C66.8952 56.9709 65.5505 57.2366 64.193 57.233H60.8486C60.4816 57.233 60.1814 57.5333 60.1814 57.9003V62.9044C60.1814 63.2714 60.4816 63.5716 60.8486 63.5716H64.193C73.4006 63.5716 80.8651 56.1071 80.8651 46.8912C80.8651 39.1598 75.6024 32.6544 68.4715 30.7695Z" fill="black"/>
</g>
</svg>
