<svg width="35" height="35" viewBox="0 0 35 35" fill="none" xmlns="http://www.w3.org/2000/svg">
<path fill-rule="evenodd" clip-rule="evenodd" d="M17.5 35C27.1651 35 35 27.165 35 17.5C35 7.83502 27.1651 0 17.5 0C7.83501 0 0 7.83502 0 17.5C0 27.165 7.83501 35 17.5 35ZM20.2011 13.521C21.6928 12.0292 21.6928 9.61062 20.2011 8.11883C18.7093 6.62706 16.2907 6.62706 14.7989 8.11883C13.3072 9.61062 13.3072 12.0292 14.7989 13.521L17.5 16.222L20.2011 13.521ZM21.479 20.2011C22.9708 21.6929 25.3894 21.6929 26.8812 20.2011C28.3729 18.7093 28.3729 16.2907 26.8812 14.7989C25.3894 13.3072 22.9708 13.3072 21.479 14.7989L18.778 17.5001L21.479 20.2011ZM20.2011 26.8812C21.6928 25.3894 21.6928 22.9708 20.2011 21.479L17.5 18.778L14.7989 21.479C13.3072 22.9708 13.3072 25.3894 14.7989 26.8812C16.2907 28.373 18.7093 28.373 20.2011 26.8812ZM8.11881 20.2011C6.62707 18.7093 6.62707 16.2907 8.11881 14.7989C9.61062 13.3072 12.0292 13.3072 13.521 14.7989L16.222 17.5001L13.521 20.2011C12.0292 21.6929 9.61062 21.6929 8.11881 20.2011Z" fill="#7F57F1"/>
</svg>
