<svg xmlns="http://www.w3.org/2000/svg" xmlns:xlink="http://www.w3.org/1999/xlink" width="500" zoomAndPan="magnify" viewBox="0 0 375 374.999991" height="500" preserveAspectRatio="xMidYMid meet" version="1.0"><defs><g/><clipPath id="3ed31d8787"><path d="M 59.148438 87 L 98 87 L 98 166 L 59.148438 166 Z M 59.148438 87 " clip-rule="nonzero"/></clipPath><clipPath id="072e52a60a"><path d="M 93 82.199219 L 111 82.199219 L 111 100 L 93 100 Z M 93 82.199219 " clip-rule="nonzero"/></clipPath><clipPath id="88e85b19c7"><path d="M 148 82.199219 L 166 82.199219 L 166 100 L 148 100 Z M 148 82.199219 " clip-rule="nonzero"/></clipPath><clipPath id="27759ddf24"><path d="M 127 209 L 220.398438 209 L 220.398438 288.449219 L 127 288.449219 Z M 127 209 " clip-rule="nonzero"/></clipPath><clipPath id="f8f465a068"><path d="M 59.148438 142 L 153 142 L 153 181 L 59.148438 181 Z M 59.148438 142 " clip-rule="nonzero"/></clipPath><clipPath id="5aba443f5f"><path d="M 151.144531 125 L 298 125 L 298 251.632812 L 151.144531 251.632812 Z M 151.144531 125 " clip-rule="nonzero"/></clipPath></defs><path fill="#333333" d="M 129.617188 214.503906 C 129.207031 214.503906 128.800781 214.398438 128.433594 214.1875 C 127.316406 213.542969 100.824219 198.136719 80.800781 173.910156 C 79.964844 172.898438 80.109375 171.402344 81.121094 170.566406 C 82.132812 169.730469 83.628906 169.871094 84.464844 170.882812 C 101.574219 191.582031 124.222656 206.058594 129.617188 209.351562 C 138.113281 204.148438 189.398438 171.136719 194.792969 129.453125 C 195.089844 127.636719 195.234375 125.890625 195.234375 124.179688 C 195.234375 106.738281 181.050781 92.546875 163.613281 92.546875 C 162.300781 92.546875 161.238281 91.480469 161.238281 90.167969 C 161.238281 88.855469 162.300781 87.792969 163.613281 87.792969 C 183.671875 87.792969 199.988281 104.113281 199.988281 124.179688 C 199.988281 126.148438 199.820312 128.15625 199.492188 130.148438 C 193.347656 177.644531 133.351562 212.714844 130.804688 214.183594 C 130.4375 214.398438 130.027344 214.503906 129.617188 214.503906 Z M 129.617188 214.503906 " fill-opacity="1" fill-rule="nonzero"/><g clip-path="url(#3ed31d8787)"><path fill="#333333" d="M 75.820312 165.734375 C 75.0625 165.734375 74.316406 165.371094 73.855469 164.695312 C 65.957031 153.105469 61.203125 141.453125 59.730469 130.066406 C 59.414062 128.167969 59.246094 126.160156 59.246094 124.179688 C 59.246094 104.117188 75.5625 87.792969 95.621094 87.792969 C 96.933594 87.792969 97.996094 88.855469 97.996094 90.167969 C 97.996094 91.484375 96.933594 92.546875 95.621094 92.546875 C 78.183594 92.546875 64 106.738281 64 124.179688 C 64 125.898438 64.144531 127.648438 64.429688 129.371094 C 65.820312 140.09375 70.308594 151.050781 77.78125 162.019531 C 78.519531 163.105469 78.242188 164.582031 77.15625 165.320312 C 76.746094 165.601562 76.28125 165.734375 75.820312 165.734375 Z M 75.820312 165.734375 " fill-opacity="1" fill-rule="nonzero"/></g><g clip-path="url(#072e52a60a)"><path fill="#333333" d="M 102.308594 99.191406 C 97.636719 99.191406 93.835938 95.390625 93.835938 90.714844 C 93.835938 86.042969 97.636719 82.238281 102.308594 82.238281 C 106.980469 82.238281 110.78125 86.042969 110.78125 90.714844 C 110.78125 95.390625 106.980469 99.191406 102.308594 99.191406 Z M 102.308594 86.996094 C 100.257812 86.996094 98.585938 88.664062 98.585938 90.71875 C 98.585938 92.769531 100.257812 94.4375 102.308594 94.4375 C 104.359375 94.4375 106.027344 92.769531 106.027344 90.71875 C 106.027344 88.664062 104.359375 86.996094 102.308594 86.996094 Z M 102.308594 86.996094 " fill-opacity="1" fill-rule="nonzero"/></g><g clip-path="url(#88e85b19c7)"><path fill="#333333" d="M 156.578125 99.191406 C 151.90625 99.191406 148.105469 95.390625 148.105469 90.714844 C 148.105469 86.042969 151.90625 82.238281 156.578125 82.238281 C 161.25 82.238281 165.050781 86.042969 165.050781 90.714844 C 165.050781 95.390625 161.25 99.191406 156.578125 99.191406 Z M 156.578125 86.996094 C 154.527344 86.996094 152.855469 88.664062 152.855469 90.71875 C 152.855469 92.769531 154.527344 94.4375 156.578125 94.4375 C 158.628906 94.4375 160.296875 92.769531 160.296875 90.71875 C 160.296875 88.664062 158.628906 86.996094 156.578125 86.996094 Z M 156.578125 86.996094 " fill-opacity="1" fill-rule="nonzero"/></g><g clip-path="url(#27759ddf24)"><path fill="#333333" d="M 190.675781 288.503906 C 155.699219 288.503906 127.246094 260.039062 127.246094 225.046875 L 127.246094 212.34375 C 127.246094 211.03125 128.308594 209.96875 129.621094 209.96875 C 130.933594 209.96875 131.996094 211.03125 131.996094 212.34375 L 131.996094 225.046875 C 131.996094 257.417969 158.320312 283.75 190.675781 283.75 C 223.027344 283.75 249.351562 257.414062 249.351562 225.046875 L 249.351562 212.34375 C 249.351562 211.03125 250.414062 209.96875 251.726562 209.96875 C 253.039062 209.96875 254.101562 211.03125 254.101562 212.34375 L 254.101562 225.046875 C 254.101562 260.039062 225.648438 288.503906 190.675781 288.503906 Z M 190.675781 288.503906 " fill-opacity="1" fill-rule="nonzero"/></g><g clip-path="url(#f8f465a068)"><path fill="#333333" d="M 107.464844 180.476562 C 107.460938 180.476562 107.460938 180.476562 107.457031 180.476562 C 106.480469 180.476562 105.605469 179.875 105.25 178.964844 L 96.683594 156.980469 L 92.546875 165.191406 C 92.144531 165.996094 91.324219 166.5 90.425781 166.5 L 61.625 166.5 C 60.3125 166.5 59.246094 165.4375 59.246094 164.125 C 59.246094 162.808594 60.3125 161.746094 61.625 161.746094 L 88.960938 161.746094 L 94.835938 150.078125 C 95.257812 149.238281 96.140625 148.726562 97.070312 148.773438 C 98.007812 148.816406 98.832031 149.40625 99.171875 150.28125 L 107.488281 171.613281 L 118.480469 143.976562 C 118.839844 143.070312 119.714844 142.480469 120.6875 142.480469 C 120.695312 142.480469 120.703125 142.480469 120.707031 142.480469 C 121.6875 142.488281 122.5625 143.097656 122.910156 144.011719 L 129.894531 162.433594 L 150.5625 162.429688 C 151.875 162.429688 152.9375 163.496094 152.9375 164.808594 C 152.9375 166.121094 151.875 167.1875 150.5625 167.1875 L 128.253906 167.1875 C 127.265625 167.1875 126.382812 166.578125 126.035156 165.652344 L 120.636719 151.417969 L 109.675781 178.976562 C 109.3125 179.882812 108.4375 180.476562 107.464844 180.476562 Z M 107.464844 180.476562 " fill-opacity="1" fill-rule="nonzero"/></g><path stroke-linecap="butt" transform="matrix(0.000000000000002796, 0.72885, -0.75, 0.000000000000002877, 194.037957, 146.090249)" fill="none" stroke-linejoin="miter" d="M -0.000555748 2.998526 L 14.416414 2.998526 " stroke="#ffffff" stroke-width="6" stroke-opacity="1" stroke-miterlimit="4"/><path stroke-linecap="butt" transform="matrix(0.522841, 0.522841, -0.53033, 0.53033, 178.381942, 163.09707)" fill="none" stroke-linejoin="miter" d="M -0.00234218 3.001253 L 12.175705 3.001253 " stroke="#ffffff" stroke-width="6" stroke-opacity="1" stroke-miterlimit="4"/><path fill="#d43a3a" d="M 259.175781 195.617188 L 249.496094 195.617188 L 249.496094 205.582031 L 239.453125 205.582031 L 239.453125 215.121094 L 249.496094 215.121094 L 249.496094 225.132812 L 259.175781 225.132812 L 259.175781 215.121094 L 269.21875 215.121094 L 269.21875 205.582031 L 259.175781 205.582031 L 259.175781 195.617188 " fill-opacity="1" fill-rule="nonzero"/><path fill="#d43a3a" d="M 254.335938 184.039062 C 239.851562 184.039062 228.070312 195.847656 228.070312 210.375 C 228.070312 220.457031 233.757812 229.234375 242.070312 233.660156 C 245.734375 235.609375 249.90625 236.71875 254.335938 236.71875 C 268.820312 236.71875 280.601562 224.898438 280.601562 210.375 C 280.601562 205.941406 279.496094 201.75 277.554688 198.082031 C 273.140625 189.734375 264.390625 184.039062 254.335938 184.039062 Z M 254.335938 230.753906 C 251.574219 230.753906 248.933594 230.199219 246.539062 229.191406 C 239.191406 226.117188 234.015625 218.839844 234.015625 210.375 C 234.015625 199.136719 243.132812 189.992188 254.335938 189.992188 C 262.777344 189.992188 270.03125 195.1875 273.097656 202.550781 C 274.09375 204.964844 274.65625 207.601562 274.65625 210.375 C 274.65625 221.609375 265.539062 230.753906 254.335938 230.753906 " fill-opacity="1" fill-rule="nonzero"/><g clip-path="url(#5aba443f5f)"><path fill="#d43a3a" d="M 286.429688 136.40625 C 271.902344 121.835938 248.347656 121.835938 233.820312 136.40625 L 224.316406 145.925781 L 214.816406 136.40625 C 200.289062 121.835938 176.734375 121.835938 162.195312 136.40625 C 155.019531 143.601562 151.386719 153.011719 151.304688 162.453125 L 177.554688 162.453125 L 192.777344 177.71875 L 192.777344 148.277344 L 212.972656 168.523438 L 231.625 168.523438 L 231.625 173.1875 L 211.046875 173.1875 L 197.429688 159.539062 L 197.429688 188.984375 L 175.628906 167.117188 L 151.554688 167.117188 C 152.492188 175.183594 156.039062 182.996094 162.195312 189.171875 L 224.316406 251.476562 L 239.886719 235.859375 C 230.742188 230.628906 225.101562 220.949219 225.101562 210.375 C 225.101562 194.210938 238.210938 181.054688 254.335938 181.054688 C 264.878906 181.054688 274.53125 186.710938 279.738281 195.882812 L 286.429688 189.171875 C 300.96875 174.601562 300.96875 150.976562 286.429688 136.40625 " fill-opacity="1" fill-rule="nonzero"/></g><g fill="#333333" fill-opacity="1"><g transform="translate(176.826892, 279.114898)"><g><path d="M 8.164062 -24.421875 L 3.105469 -24.421875 L 3.105469 0 L 20.550781 0 L 20.550781 -1.359375 L 8.164062 -1.359375 Z M 8.164062 -24.421875 "/></g></g></g><g fill="#333333" fill-opacity="1"><g transform="translate(199.783164, 279.114898)"><g><path d="M 2.441406 -25.503906 C 2.441406 -23.863281 3.734375 -22.574219 5.375 -22.574219 C 6.976562 -22.574219 8.339844 -23.863281 8.339844 -25.503906 C 8.339844 -27.144531 6.976562 -28.4375 5.375 -28.4375 C 3.734375 -28.4375 2.441406 -27.144531 2.441406 -25.503906 Z M 7.710938 -17.480469 L 3.105469 -17.480469 L 3.105469 0 L 7.710938 0 Z M 7.710938 -17.480469 "/></g></g></g><g fill="#333333" fill-opacity="1"><g transform="translate(212.657037, 279.114898)"><g><path d="M 9.105469 -28.4375 C 4.78125 -28.4375 3.105469 -25.75 3.105469 -21.527344 L 3.105469 -17.445312 L 1.324219 -17.445312 L 1.324219 -16.085938 L 3.105469 -16.085938 L 3.105469 0 L 7.710938 0 L 7.710938 -16.085938 L 13.816406 -16.085938 L 13.816406 -17.445312 L 7.710938 -17.445312 L 7.710938 -23.480469 C 7.710938 -25.679688 8.445312 -26.867188 10.292969 -26.867188 C 12.003906 -26.867188 13.640625 -25.503906 13.957031 -25.015625 L 14.828125 -26.0625 C 14.828125 -26.0625 13.222656 -28.4375 9.105469 -28.4375 Z M 9.105469 -28.4375 "/></g></g></g><g fill="#333333" fill-opacity="1"><g transform="translate(230.205794, 279.114898)"><g><path d="M 19.15625 -3.804688 L 18.28125 -4.816406 C 18.28125 -4.816406 16.257812 -1.917969 12.527344 -1.917969 C 9.210938 -1.917969 7.117188 -4.1875 6.734375 -8.058594 L 19.746094 -8.058594 L 19.746094 -8.828125 C 19.746094 -14.757812 16.292969 -17.96875 10.957031 -17.96875 C 4.917969 -17.96875 2.058594 -13.816406 2.058594 -8.722656 C 2.058594 -3.558594 4.953125 0.488281 10.957031 0.488281 C 16.78125 0.488281 19.15625 -3.804688 19.15625 -3.804688 Z M 15.140625 -9.421875 L 6.664062 -9.421875 C 6.664062 -13.851562 8.234375 -16.644531 10.957031 -16.644531 C 13.398438 -16.644531 15.003906 -14.234375 15.140625 -9.421875 Z M 15.140625 -9.421875 "/></g></g></g><g fill="#333333" fill-opacity="1"><g transform="translate(254.104019, 279.114898)"><g><path d="M 9.945312 -24.945312 C 4.816406 -24.945312 1.605469 -22.15625 1.605469 -17.792969 C 1.605469 -15.109375 2.929688 -13.363281 6 -11.828125 L 12.210938 -8.617188 C 14.339844 -7.535156 15.074219 -6.316406 15.074219 -4.851562 C 15.074219 -2.40625 13.257812 -1.046875 10.257812 -1.046875 C 6.210938 -1.046875 3.246094 -3.523438 2.617188 -4.394531 L 1.605469 -3.488281 C 1.605469 -3.488281 4.292969 0.488281 11.128906 0.488281 C 16.46875 0.488281 20.097656 -2.128906 20.097656 -6.488281 C 20.097656 -9.070312 18.839844 -11.023438 16.050781 -12.421875 L 9.488281 -15.769531 C 7.535156 -16.78125 6.664062 -17.863281 6.664062 -19.609375 C 6.664062 -21.945312 8.511719 -23.375 11.023438 -23.375 C 15.039062 -23.375 17.445312 -20.96875 17.96875 -20.167969 L 18.980469 -21.039062 C 18.980469 -21.039062 16.363281 -24.945312 9.945312 -24.945312 Z M 9.945312 -24.945312 "/></g></g></g><g fill="#333333" fill-opacity="1"><g transform="translate(277.897577, 279.114898)"><g><path d="M 14.410156 -10.46875 L 13.015625 -10.46875 C 6.28125 -10.46875 2.058594 -8.828125 2.058594 -4.359375 C 2.058594 -1.570312 3.941406 0.523438 7.78125 0.523438 C 10.851562 0.523438 13.050781 -0.941406 14.410156 -2.269531 L 14.410156 0 L 19.050781 0 L 19.050781 -11.128906 C 19.050781 -15.246094 16.398438 -17.96875 10.957031 -17.96875 C 5.617188 -17.96875 3.417969 -15.597656 3.417969 -15.597656 L 4.292969 -14.550781 C 4.78125 -15.074219 7.082031 -16.398438 9.734375 -16.398438 C 12.980469 -16.398438 14.410156 -14.722656 14.410156 -11.792969 Z M 14.410156 -9.105469 L 14.410156 -3.871094 C 13.46875 -2.964844 11.96875 -1.917969 10.082031 -1.917969 C 7.816406 -1.917969 6.664062 -3.28125 6.664062 -5.023438 C 6.664062 -7.886719 9.351562 -9.105469 13.015625 -9.105469 Z M 14.410156 -9.105469 "/></g></g></g><g fill="#333333" fill-opacity="1"><g transform="translate(302.109785, 279.114898)"><g><path d="M 6.246094 -17.480469 L 1.082031 -17.480469 L 9.28125 0.523438 L 10.605469 0.488281 L 18.804688 -17.480469 L 17.304688 -17.480469 L 11.757812 -4.882812 Z M 6.246094 -17.480469 "/></g></g></g><g fill="#333333" fill-opacity="1"><g transform="translate(324.403196, 279.114898)"><g><path d="M 19.15625 -3.804688 L 18.28125 -4.816406 C 18.28125 -4.816406 16.257812 -1.917969 12.527344 -1.917969 C 9.210938 -1.917969 7.117188 -4.1875 6.734375 -8.058594 L 19.746094 -8.058594 L 19.746094 -8.828125 C 19.746094 -14.757812 16.292969 -17.96875 10.957031 -17.96875 C 4.917969 -17.96875 2.058594 -13.816406 2.058594 -8.722656 C 2.058594 -3.558594 4.953125 0.488281 10.957031 0.488281 C 16.78125 0.488281 19.15625 -3.804688 19.15625 -3.804688 Z M 15.140625 -9.421875 L 6.664062 -9.421875 C 6.664062 -13.851562 8.234375 -16.644531 10.957031 -16.644531 C 13.398438 -16.644531 15.003906 -14.234375 15.140625 -9.421875 Z M 15.140625 -9.421875 "/></g></g></g><g fill="#333333" fill-opacity="1"><g transform="translate(348.301422, 279.114898)"><g><path d="M 3.105469 -17.480469 L 3.105469 0 L 7.710938 0 L 7.710938 -12.351562 C 8.511719 -14.199219 10.222656 -15.527344 12.210938 -15.527344 C 13.746094 -15.527344 14.722656 -14.617188 14.722656 -14.617188 L 15.945312 -16.644531 C 15.945312 -16.644531 15.246094 -17.96875 12.527344 -17.96875 C 10.433594 -17.96875 8.828125 -16.992188 7.710938 -15.492188 L 7.710938 -17.480469 Z M 3.105469 -17.480469 "/></g></g></g></svg>