<svg width="50" height="48" viewBox="0 0 50 48" fill="none" xmlns="http://www.w3.org/2000/svg">
<g opacity="0.5">
<path opacity="0.5" d="M24.7833 48C11.096 48 0.00018692 37.2548 0.00018692 24C0.00018692 10.7452 11.096 0 24.7833 0C38.4706 0 49.5664 10.7452 49.5664 24C49.5664 37.2548 38.4706 48 24.7833 48Z" fill="url(#paint0_linear_851_5300)"/>
</g>
<path d="M24.7337 47.3393C11.335 47.3393 0.473213 36.8207 0.473213 23.8454C0.473213 10.8701 11.335 0.351562 24.7337 0.351562C38.1324 0.351562 48.9941 10.8701 48.9941 23.8454C48.9941 36.8207 38.1324 47.3393 24.7337 47.3393Z" fill="#F5F5F5"/>
<path d="M24.7111 47.4329C19.9706 47.4404 15.3328 46.0963 11.3758 43.5682C12.2699 38.837 15.672 38.5674 15.672 38.5674H34.4334C34.4334 38.5674 37.6438 38.8225 38.6465 43.1748C34.5669 45.9538 29.6989 47.4413 24.7111 47.4329Z" fill="#340956"/>
<path d="M24.9679 34.6904C18.5007 34.6904 13.258 29.6134 13.258 23.3506C13.258 17.0878 18.5007 12.0107 24.9679 12.0107C31.4351 12.0107 36.6777 17.0878 36.6777 23.3506C36.6777 29.6134 31.4351 34.6904 24.9679 34.6904Z" fill="#333333"/>
<path opacity="0.1" d="M28.748 32.7959H21.2449V38.6089C21.2449 39.5721 21.64 40.496 22.3432 41.1773C23.0465 41.8586 24.0003 42.2415 24.9951 42.2419C25.99 42.2419 26.9443 41.8591 27.6478 41.1778C28.3514 40.4965 28.7466 39.5724 28.7466 38.6089V32.7959H28.748Z" fill="black"/>
<path d="M28.5116 32.5283H21.4814C21.4183 32.5283 21.3578 32.5526 21.3132 32.5958C21.2686 32.639 21.2435 32.6976 21.2435 32.7587V38.3413C21.2434 38.8185 21.3404 39.2911 21.529 39.7321C21.7176 40.173 21.9941 40.5737 22.3426 40.9111C22.6911 41.2486 23.1049 41.5162 23.5602 41.6987C24.0156 41.8813 24.5037 41.9751 24.9965 41.975C25.9915 41.975 26.9457 41.5922 27.6492 40.9109C28.3528 40.2296 28.748 39.3055 28.748 38.342V32.7587C28.748 32.6978 28.7232 32.6394 28.6789 32.5963C28.6346 32.5531 28.5744 32.5287 28.5116 32.5283Z" fill="#FDB797"/>
<path opacity="0.1" d="M28.7344 35.541C26.3162 36.4159 23.6544 36.423 21.2313 35.561V34.667H28.7344V35.541Z" fill="black"/>
<path d="M24.9699 36.028C19.0302 36.028 14.2151 31.3651 14.2151 25.6131C14.2151 19.8612 19.0302 15.1982 24.9699 15.1982C30.9096 15.1982 35.7246 19.8612 35.7246 25.6131C35.7246 31.3651 30.9096 36.028 24.9699 36.028Z" fill="#FDB797"/>
<path opacity="0.1" d="M32.6309 16.1392C32.6309 16.1392 28.0982 25.0488 15.3125 19.8747L18.2893 15.3545L23.5662 13.5205L32.6309 16.1392Z" fill="black"/>
<path d="M32.6309 16.0068C32.6309 16.0068 28.0982 24.9163 15.3125 19.7409L18.2893 15.2208L23.5662 13.3867L32.6309 16.0068Z" fill="#333333"/>
<path d="M32.67 15.4047C32.3644 14.4885 31.8362 13.6568 31.1298 12.9793C29.0143 10.954 25.5461 10.527 23.7673 8.21777C23.3412 8.85869 23.6707 9.84413 24.4064 10.1192C22.7021 10.1082 20.7273 9.96379 19.7636 8.60631C19.5255 9.1432 19.4496 9.73452 19.5447 10.3115C19.6399 10.8885 19.9022 11.4276 20.3012 11.8659C18.7908 11.9347 17.1767 12.9249 17.0815 14.3863C17.0162 15.36 17.6496 16.2815 18.4726 16.8399C19.2957 17.3983 20.2983 17.6548 21.2819 17.8645C24.1536 18.4786 34.544 21.0485 32.67 15.4047Z" fill="#333333"/>
<path d="M35.728 27.4179C35.1754 27.4179 34.7274 26.6044 34.7274 25.601C34.7274 24.5976 35.1754 23.7842 35.728 23.7842C36.2806 23.7842 36.7285 24.5976 36.7285 25.601C36.7285 26.6044 36.2806 27.4179 35.728 27.4179Z" fill="#FDB797"/>
<path d="M14.2162 27.4179C13.6636 27.4179 13.2157 26.6044 13.2157 25.601C13.2157 24.5976 13.6636 23.7842 14.2162 23.7842C14.7688 23.7842 15.2168 24.5976 15.2168 25.601C15.2168 26.6044 14.7688 27.4179 14.2162 27.4179Z" fill="#FDB797"/>
<defs>
<linearGradient id="paint0_linear_851_5300" x1="24.7833" y1="48" x2="24.7833" y2="0" gradientUnits="userSpaceOnUse">
<stop stop-color="#808080" stop-opacity="0.25"/>
<stop offset="0.54" stop-color="#808080" stop-opacity="0.12"/>
<stop offset="1" stop-color="#808080" stop-opacity="0.1"/>
</linearGradient>
</defs>
</svg>
