<svg width="92" height="34" viewBox="0 0 92 34" fill="none" xmlns="http://www.w3.org/2000/svg">
<rect width="92" height="34" rx="6" fill="#B3FBB5"/>
<path d="M22.964 19.404H19.628L19.076 21H17.312L20.324 12.612H22.28L25.292 21H23.516L22.964 19.404ZM22.508 18.06L21.296 14.556L20.084 18.06H22.508ZM25.9858 17.676C25.9858 16.988 26.1258 16.388 26.4058 15.876C26.6858 15.356 27.0738 14.956 27.5698 14.676C28.0658 14.388 28.6338 14.244 29.2738 14.244C30.0978 14.244 30.7778 14.452 31.3138 14.868C31.8578 15.276 32.2218 15.852 32.4058 16.596H30.5938C30.4978 16.308 30.3338 16.084 30.1018 15.924C29.8778 15.756 29.5978 15.672 29.2618 15.672C28.7818 15.672 28.4018 15.848 28.1218 16.2C27.8418 16.544 27.7018 17.036 27.7018 17.676C27.7018 18.308 27.8418 18.8 28.1218 19.152C28.4018 19.496 28.7818 19.668 29.2618 19.668C29.9418 19.668 30.3858 19.364 30.5938 18.756H32.4058C32.2218 19.476 31.8578 20.048 31.3138 20.472C30.7698 20.896 30.0898 21.108 29.2738 21.108C28.6338 21.108 28.0658 20.968 27.5698 20.688C27.0738 20.4 26.6858 20 26.4058 19.488C26.1258 18.968 25.9858 18.364 25.9858 17.676ZM33.2046 17.676C33.2046 16.988 33.3446 16.388 33.6246 15.876C33.9046 15.356 34.2926 14.956 34.7886 14.676C35.2846 14.388 35.8526 14.244 36.4926 14.244C37.3166 14.244 37.9966 14.452 38.5326 14.868C39.0766 15.276 39.4406 15.852 39.6246 16.596H37.8126C37.7166 16.308 37.5526 16.084 37.3206 15.924C37.0966 15.756 36.8166 15.672 36.4806 15.672C36.0006 15.672 35.6206 15.848 35.3406 16.2C35.0606 16.544 34.9206 17.036 34.9206 17.676C34.9206 18.308 35.0606 18.8 35.3406 19.152C35.6206 19.496 36.0006 19.668 36.4806 19.668C37.1606 19.668 37.6046 19.364 37.8126 18.756H39.6246C39.4406 19.476 39.0766 20.048 38.5326 20.472C37.9886 20.896 37.3086 21.108 36.4926 21.108C35.8526 21.108 35.2846 20.968 34.7886 20.688C34.2926 20.4 33.9046 20 33.6246 19.488C33.3446 18.968 33.2046 18.364 33.2046 17.676ZM47.0353 17.532C47.0353 17.772 47.0193 17.988 46.9873 18.18H42.1273C42.1673 18.66 42.3353 19.036 42.6313 19.308C42.9273 19.58 43.2913 19.716 43.7233 19.716C44.3473 19.716 44.7913 19.448 45.0553 18.912H46.8673C46.6753 19.552 46.3073 20.08 45.7633 20.496C45.2193 20.904 44.5513 21.108 43.7593 21.108C43.1193 21.108 42.5433 20.968 42.0313 20.688C41.5273 20.4 41.1313 19.996 40.8433 19.476C40.5633 18.956 40.4233 18.356 40.4233 17.676C40.4233 16.988 40.5633 16.384 40.8433 15.864C41.1233 15.344 41.5153 14.944 42.0193 14.664C42.5233 14.384 43.1033 14.244 43.7593 14.244C44.3913 14.244 44.9553 14.38 45.4513 14.652C45.9553 14.924 46.3433 15.312 46.6153 15.816C46.8953 16.312 47.0353 16.884 47.0353 17.532ZM45.2953 17.052C45.2873 16.62 45.1313 16.276 44.8273 16.02C44.5233 15.756 44.1513 15.624 43.7113 15.624C43.2953 15.624 42.9433 15.752 42.6553 16.008C42.3753 16.256 42.2033 16.604 42.1393 17.052H45.2953ZM49.9416 15.312C50.1576 15.008 50.4536 14.756 50.8296 14.556C51.2136 14.348 51.6496 14.244 52.1376 14.244C52.7056 14.244 53.2176 14.384 53.6736 14.664C54.1376 14.944 54.5016 15.344 54.7656 15.864C55.0376 16.376 55.1736 16.972 55.1736 17.652C55.1736 18.332 55.0376 18.936 54.7656 19.464C54.5016 19.984 54.1376 20.388 53.6736 20.676C53.2176 20.964 52.7056 21.108 52.1376 21.108C51.6496 21.108 51.2176 21.008 50.8416 20.808C50.4736 20.608 50.1736 20.356 49.9416 20.052V24.168H48.2616V14.352H49.9416V15.312ZM53.4576 17.652C53.4576 17.252 53.3736 16.908 53.2056 16.62C53.0456 16.324 52.8296 16.1 52.5576 15.948C52.2936 15.796 52.0056 15.72 51.6936 15.72C51.3896 15.72 51.1016 15.8 50.8296 15.96C50.5656 16.112 50.3496 16.336 50.1816 16.632C50.0216 16.928 49.9416 17.276 49.9416 17.676C49.9416 18.076 50.0216 18.424 50.1816 18.72C50.3496 19.016 50.5656 19.244 50.8296 19.404C51.1016 19.556 51.3896 19.632 51.6936 19.632C52.0056 19.632 52.2936 19.552 52.5576 19.392C52.8296 19.232 53.0456 19.004 53.2056 18.708C53.3736 18.412 53.4576 18.06 53.4576 17.652ZM58.3504 15.732V18.948C58.3504 19.172 58.4024 19.336 58.5064 19.44C58.6184 19.536 58.8024 19.584 59.0584 19.584H59.8384V21H58.7824C57.3664 21 56.6584 20.312 56.6584 18.936V15.732H55.8664V14.352H56.6584V12.708H58.3504V14.352H59.8384V15.732H58.3504ZM67.2268 17.532C67.2268 17.772 67.2108 17.988 67.1788 18.18H62.3188C62.3588 18.66 62.5268 19.036 62.8228 19.308C63.1188 19.58 63.4828 19.716 63.9148 19.716C64.5388 19.716 64.9828 19.448 65.2468 18.912H67.0588C66.8668 19.552 66.4988 20.08 65.9548 20.496C65.4108 20.904 64.7428 21.108 63.9508 21.108C63.3108 21.108 62.7348 20.968 62.2228 20.688C61.7188 20.4 61.3228 19.996 61.0348 19.476C60.7548 18.956 60.6147 18.356 60.6147 17.676C60.6147 16.988 60.7548 16.384 61.0348 15.864C61.3148 15.344 61.7068 14.944 62.2108 14.664C62.7148 14.384 63.2948 14.244 63.9508 14.244C64.5828 14.244 65.1468 14.38 65.6428 14.652C66.1468 14.924 66.5348 15.312 66.8068 15.816C67.0868 16.312 67.2268 16.884 67.2268 17.532ZM65.4868 17.052C65.4788 16.62 65.3228 16.276 65.0188 16.02C64.7148 15.756 64.3428 15.624 63.9028 15.624C63.4868 15.624 63.1348 15.752 62.8468 16.008C62.5668 16.256 62.3948 16.604 62.3308 17.052H65.4868ZM68.021 17.652C68.021 16.98 68.153 16.384 68.417 15.864C68.689 15.344 69.057 14.944 69.521 14.664C69.985 14.384 70.501 14.244 71.069 14.244C71.501 14.244 71.913 14.34 72.305 14.532C72.697 14.716 73.009 14.964 73.241 15.276V12.12H74.945V21H73.241V20.016C73.033 20.344 72.741 20.608 72.365 20.808C71.989 21.008 71.553 21.108 71.057 21.108C70.497 21.108 69.985 20.964 69.521 20.676C69.057 20.388 68.689 19.984 68.417 19.464C68.153 18.936 68.021 18.332 68.021 17.652ZM73.253 17.676C73.253 17.268 73.173 16.92 73.013 16.632C72.853 16.336 72.637 16.112 72.365 15.96C72.093 15.8 71.801 15.72 71.489 15.72C71.177 15.72 70.889 15.796 70.625 15.948C70.361 16.1 70.145 16.324 69.977 16.62C69.817 16.908 69.737 17.252 69.737 17.652C69.737 18.052 69.817 18.404 69.977 18.708C70.145 19.004 70.361 19.232 70.625 19.392C70.897 19.552 71.185 19.632 71.489 19.632C71.801 19.632 72.093 19.556 72.365 19.404C72.637 19.244 72.853 19.02 73.013 18.732C73.173 18.436 73.253 18.084 73.253 17.676Z" fill="#0AAC38" fill-opacity="0.764706"/>
</svg>
