<svg width="270" height="50" viewBox="0 0 270 50" fill="none" xmlns="http://www.w3.org/2000/svg">
<rect width="270" height="50" rx="25" fill="#FF2020"/>
<path d="M52.3203 27.4707L55.1621 28.1885C54.5664 30.5225 53.4922 32.3047 51.9395 33.5352C50.3965 34.7559 48.5068 35.3662 46.2705 35.3662C43.9561 35.3662 42.0713 34.8975 40.6162 33.96C39.1709 33.0127 38.0674 31.6455 37.3057 29.8584C36.5537 28.0713 36.1777 26.1523 36.1777 24.1016C36.1777 21.8652 36.6025 19.917 37.4521 18.2568C38.3115 16.5869 39.5273 15.3223 41.0996 14.4629C42.6816 13.5938 44.4199 13.1592 46.3145 13.1592C48.4629 13.1592 50.2695 13.7061 51.7344 14.7998C53.1992 15.8936 54.2197 17.4316 54.7959 19.4141L51.998 20.0732C51.5 18.5107 50.7773 17.373 49.8301 16.6602C48.8828 15.9473 47.6914 15.5908 46.2559 15.5908C44.6055 15.5908 43.2236 15.9863 42.1104 16.7773C41.0068 17.5684 40.2305 18.6328 39.7812 19.9707C39.332 21.2988 39.1074 22.6709 39.1074 24.0869C39.1074 25.9131 39.3711 27.5098 39.8984 28.877C40.4355 30.2344 41.2656 31.25 42.3887 31.9238C43.5117 32.5977 44.7275 32.9346 46.0361 32.9346C47.6279 32.9346 48.9756 32.4756 50.0791 31.5576C51.1826 30.6396 51.9297 29.2773 52.3203 27.4707ZM68.4922 33.0811C67.5156 33.9111 66.5732 34.4971 65.665 34.8389C64.7666 35.1807 63.7998 35.3516 62.7646 35.3516C61.0557 35.3516 59.7422 34.9365 58.8242 34.1064C57.9062 33.2666 57.4473 32.1973 57.4473 30.8984C57.4473 30.1367 57.6182 29.4434 57.96 28.8184C58.3115 28.1836 58.7656 27.6758 59.3223 27.2949C59.8887 26.9141 60.5234 26.626 61.2266 26.4307C61.7441 26.2939 62.5254 26.1621 63.5703 26.0352C65.6992 25.7812 67.2666 25.4785 68.2725 25.127C68.2822 24.7656 68.2871 24.5361 68.2871 24.4385C68.2871 23.3643 68.0381 22.6074 67.54 22.168C66.8662 21.5723 65.8652 21.2744 64.5371 21.2744C63.2969 21.2744 62.3789 21.4941 61.7832 21.9336C61.1973 22.3633 60.7627 23.1299 60.4795 24.2334L57.9014 23.8818C58.1357 22.7783 58.5215 21.8896 59.0586 21.2158C59.5957 20.5322 60.3721 20.0098 61.3877 19.6484C62.4033 19.2773 63.5801 19.0918 64.918 19.0918C66.2461 19.0918 67.3252 19.248 68.1553 19.5605C68.9854 19.873 69.5957 20.2686 69.9863 20.7471C70.377 21.2158 70.6504 21.8115 70.8066 22.5342C70.8945 22.9834 70.9385 23.7939 70.9385 24.9658V28.4814C70.9385 30.9326 70.9922 32.4854 71.0996 33.1396C71.2168 33.7842 71.4414 34.4043 71.7734 35H69.0195C68.7461 34.4531 68.5703 33.8135 68.4922 33.0811ZM68.2725 27.1924C67.3154 27.583 65.8799 27.915 63.9658 28.1885C62.8818 28.3447 62.1152 28.5205 61.666 28.7158C61.2168 28.9111 60.8701 29.1992 60.626 29.5801C60.3818 29.9512 60.2598 30.3662 60.2598 30.8252C60.2598 31.5283 60.5234 32.1143 61.0508 32.583C61.5879 33.0518 62.3691 33.2861 63.3945 33.2861C64.4102 33.2861 65.3135 33.0664 66.1045 32.627C66.8955 32.1777 67.4766 31.5674 67.8477 30.7959C68.1309 30.2002 68.2725 29.3213 68.2725 28.1592V27.1924ZM75.04 35V19.4434H77.4131V21.6553C78.5557 19.9463 80.2061 19.0918 82.3643 19.0918C83.3018 19.0918 84.1611 19.2627 84.9424 19.6045C85.7334 19.9365 86.3242 20.376 86.7148 20.9229C87.1055 21.4697 87.3789 22.1191 87.5352 22.8711C87.6328 23.3594 87.6816 24.2139 87.6816 25.4346V35H85.0449V25.5371C85.0449 24.4629 84.9424 23.6621 84.7373 23.1348C84.5322 22.5977 84.166 22.1729 83.6387 21.8604C83.1211 21.5381 82.5107 21.377 81.8076 21.377C80.6846 21.377 79.7129 21.7334 78.8926 22.4463C78.082 23.1592 77.6768 24.5117 77.6768 26.5039V35H75.04ZM101.891 29.3018L104.483 29.6387C104.2 31.4258 103.473 32.8271 102.301 33.8428C101.139 34.8486 99.708 35.3516 98.0088 35.3516C95.8799 35.3516 94.166 34.6582 92.8672 33.2715C91.5781 31.875 90.9336 29.8779 90.9336 27.2803C90.9336 25.6006 91.2119 24.1309 91.7686 22.8711C92.3252 21.6113 93.1699 20.6689 94.3027 20.0439C95.4453 19.4092 96.6855 19.0918 98.0234 19.0918C99.7129 19.0918 101.095 19.5215 102.169 20.3809C103.243 21.2305 103.932 22.4414 104.234 24.0137L101.671 24.4092C101.427 23.3643 100.992 22.5781 100.367 22.0508C99.752 21.5234 99.0049 21.2598 98.126 21.2598C96.7979 21.2598 95.7188 21.7383 94.8887 22.6953C94.0586 23.6426 93.6436 25.1465 93.6436 27.207C93.6436 29.2969 94.0439 30.8154 94.8447 31.7627C95.6455 32.71 96.6904 33.1836 97.9795 33.1836C99.0146 33.1836 99.8789 32.8662 100.572 32.2314C101.266 31.5967 101.705 30.6201 101.891 29.3018ZM117.389 29.9902L120.113 30.3271C119.684 31.9189 118.888 33.1543 117.726 34.0332C116.563 34.9121 115.079 35.3516 113.272 35.3516C110.997 35.3516 109.19 34.6533 107.853 33.2568C106.524 31.8506 105.86 29.8828 105.86 27.3535C105.86 24.7363 106.534 22.7051 107.882 21.2598C109.229 19.8145 110.978 19.0918 113.126 19.0918C115.206 19.0918 116.905 19.7998 118.224 21.2158C119.542 22.6318 120.201 24.624 120.201 27.1924C120.201 27.3486 120.196 27.583 120.187 27.8955H108.585C108.683 29.6045 109.166 30.9131 110.035 31.8213C110.904 32.7295 111.988 33.1836 113.287 33.1836C114.254 33.1836 115.079 32.9297 115.763 32.4219C116.446 31.9141 116.988 31.1035 117.389 29.9902ZM108.731 25.7275H117.418C117.301 24.4189 116.969 23.4375 116.422 22.7832C115.582 21.7676 114.493 21.2598 113.155 21.2598C111.944 21.2598 110.924 21.665 110.094 22.4756C109.273 23.2861 108.819 24.3701 108.731 25.7275ZM123.38 35V13.5254H126.017V35H123.38ZM138.849 35V13.5254H148.37C150.284 13.5254 151.739 13.7207 152.735 14.1113C153.731 14.4922 154.527 15.1709 155.123 16.1475C155.719 17.124 156.017 18.2031 156.017 19.3848C156.017 20.9082 155.523 22.1924 154.537 23.2373C153.551 24.2822 152.027 24.9463 149.967 25.2295C150.719 25.5908 151.29 25.9473 151.681 26.2988C152.511 27.0605 153.297 28.0127 154.039 29.1553L157.774 35H154.2L151.358 30.5322C150.528 29.2432 149.845 28.2568 149.308 27.5732C148.771 26.8896 148.287 26.4111 147.857 26.1377C147.438 25.8643 147.008 25.6738 146.568 25.5664C146.246 25.498 145.719 25.4639 144.986 25.4639H141.69V35H138.849ZM141.69 23.0029H147.799C149.098 23.0029 150.113 22.8711 150.846 22.6074C151.578 22.334 152.135 21.9043 152.516 21.3184C152.896 20.7227 153.087 20.0781 153.087 19.3848C153.087 18.3691 152.716 17.5342 151.974 16.8799C151.241 16.2256 150.079 15.8984 148.487 15.8984H141.69V23.0029ZM170.797 29.9902L173.521 30.3271C173.092 31.9189 172.296 33.1543 171.134 34.0332C169.972 34.9121 168.487 35.3516 166.681 35.3516C164.405 35.3516 162.599 34.6533 161.261 33.2568C159.933 31.8506 159.269 29.8828 159.269 27.3535C159.269 24.7363 159.942 22.7051 161.29 21.2598C162.638 19.8145 164.386 19.0918 166.534 19.0918C168.614 19.0918 170.313 19.7998 171.632 21.2158C172.95 22.6318 173.609 24.624 173.609 27.1924C173.609 27.3486 173.604 27.583 173.595 27.8955H161.993C162.091 29.6045 162.574 30.9131 163.443 31.8213C164.312 32.7295 165.396 33.1836 166.695 33.1836C167.662 33.1836 168.487 32.9297 169.171 32.4219C169.854 31.9141 170.396 31.1035 170.797 29.9902ZM162.14 25.7275H170.826C170.709 24.4189 170.377 23.4375 169.83 22.7832C168.99 21.7676 167.901 21.2598 166.563 21.2598C165.353 21.2598 164.332 21.665 163.502 22.4756C162.682 23.2861 162.228 24.3701 162.14 25.7275ZM186.764 40.9619V33.3447C186.354 33.9209 185.777 34.3994 185.035 34.7803C184.303 35.1611 183.521 35.3516 182.691 35.3516C180.846 35.3516 179.254 34.6143 177.916 33.1396C176.588 31.665 175.924 29.6436 175.924 27.0752C175.924 25.5127 176.192 24.1113 176.729 22.8711C177.276 21.6309 178.062 20.6934 179.088 20.0586C180.123 19.4141 181.256 19.0918 182.486 19.0918C184.41 19.0918 185.924 19.9023 187.027 21.5234V19.4434H189.4V40.9619H186.764ZM178.634 27.1777C178.634 29.1797 179.054 30.6836 179.894 31.6895C180.733 32.6855 181.739 33.1836 182.911 33.1836C184.034 33.1836 185.001 32.71 185.812 31.7627C186.622 30.8057 187.027 29.3555 187.027 27.4121C187.027 25.3418 186.598 23.7842 185.738 22.7393C184.889 21.6943 183.888 21.1719 182.735 21.1719C181.593 21.1719 180.621 21.6602 179.82 22.6367C179.029 23.6035 178.634 25.1172 178.634 27.1777ZM203.741 35V32.7148C202.53 34.4727 200.885 35.3516 198.805 35.3516C197.887 35.3516 197.027 35.1758 196.227 34.8242C195.436 34.4727 194.845 34.0332 194.454 33.5059C194.073 32.9688 193.805 32.3145 193.648 31.543C193.541 31.0254 193.487 30.2051 193.487 29.082V19.4434H196.124V28.0713C196.124 29.4482 196.178 30.376 196.285 30.8545C196.451 31.5479 196.803 32.0947 197.34 32.4951C197.877 32.8857 198.541 33.0811 199.332 33.0811C200.123 33.0811 200.865 32.8809 201.559 32.4805C202.252 32.0703 202.74 31.5186 203.023 30.8252C203.316 30.1221 203.463 29.1064 203.463 27.7783V19.4434H206.1V35H203.741ZM220.895 29.9902L223.619 30.3271C223.189 31.9189 222.394 33.1543 221.231 34.0332C220.069 34.9121 218.585 35.3516 216.778 35.3516C214.503 35.3516 212.696 34.6533 211.358 33.2568C210.03 31.8506 209.366 29.8828 209.366 27.3535C209.366 24.7363 210.04 22.7051 211.388 21.2598C212.735 19.8145 214.483 19.0918 216.632 19.0918C218.712 19.0918 220.411 19.7998 221.729 21.2158C223.048 22.6318 223.707 24.624 223.707 27.1924C223.707 27.3486 223.702 27.583 223.692 27.8955H212.091C212.188 29.6045 212.672 30.9131 213.541 31.8213C214.41 32.7295 215.494 33.1836 216.793 33.1836C217.76 33.1836 218.585 32.9297 219.269 32.4219C219.952 31.9141 220.494 31.1035 220.895 29.9902ZM212.237 25.7275H220.924C220.807 24.4189 220.475 23.4375 219.928 22.7832C219.088 21.7676 217.999 21.2598 216.661 21.2598C215.45 21.2598 214.43 21.665 213.6 22.4756C212.779 23.2861 212.325 24.3701 212.237 25.7275ZM225.89 30.3564L228.497 29.9463C228.644 30.9912 229.049 31.792 229.713 32.3486C230.387 32.9053 231.324 33.1836 232.525 33.1836C233.736 33.1836 234.635 32.9395 235.221 32.4512C235.807 31.9531 236.1 31.3721 236.1 30.708C236.1 30.1123 235.841 29.6436 235.323 29.3018C234.962 29.0674 234.063 28.7695 232.628 28.4082C230.694 27.9199 229.352 27.5 228.6 27.1484C227.857 26.7871 227.291 26.2939 226.9 25.6689C226.52 25.0342 226.329 24.3359 226.329 23.5742C226.329 22.8809 226.485 22.2412 226.798 21.6553C227.12 21.0596 227.555 20.5664 228.102 20.1758C228.512 19.873 229.068 19.6191 229.771 19.4141C230.484 19.1992 231.246 19.0918 232.057 19.0918C233.277 19.0918 234.347 19.2676 235.265 19.6191C236.192 19.9707 236.876 20.4492 237.315 21.0547C237.755 21.6504 238.058 22.4512 238.224 23.457L235.646 23.8086C235.528 23.0078 235.187 22.3828 234.62 21.9336C234.063 21.4844 233.272 21.2598 232.247 21.2598C231.036 21.2598 230.172 21.46 229.654 21.8604C229.137 22.2607 228.878 22.7295 228.878 23.2666C228.878 23.6084 228.985 23.916 229.2 24.1895C229.415 24.4727 229.752 24.707 230.211 24.8926C230.475 24.9902 231.251 25.2148 232.54 25.5664C234.405 26.0645 235.704 26.4746 236.437 26.7969C237.179 27.1094 237.76 27.5684 238.18 28.1738C238.6 28.7793 238.81 29.5312 238.81 30.4297C238.81 31.3086 238.551 32.1387 238.033 32.9199C237.525 33.6914 236.788 34.292 235.821 34.7217C234.854 35.1416 233.761 35.3516 232.54 35.3516C230.519 35.3516 228.976 34.9316 227.911 34.0918C226.856 33.252 226.183 32.0068 225.89 30.3564ZM247.701 32.6416L248.082 34.9707C247.34 35.127 246.676 35.2051 246.09 35.2051C245.133 35.2051 244.391 35.0537 243.863 34.751C243.336 34.4482 242.965 34.0527 242.75 33.5645C242.535 33.0664 242.428 32.0264 242.428 30.4443V21.4941H240.494V19.4434H242.428V15.5908L245.05 14.0088V19.4434H247.701V21.4941H245.05V30.5908C245.05 31.3428 245.094 31.8262 245.182 32.041C245.279 32.2559 245.431 32.4268 245.636 32.5537C245.851 32.6807 246.153 32.7441 246.544 32.7441C246.837 32.7441 247.223 32.71 247.701 32.6416Z" fill="#F8F8FF"/>
</svg>
