<svg width="27" height="18" viewBox="0 0 27 18" fill="none" xmlns="http://www.w3.org/2000/svg">
<path d="M22.6292 1.59133C22.1217 1.08683 21.5191 0.686629 20.8559 0.413583C20.1928 0.140537 19.4819 0 18.7641 0C18.0462 0 17.3354 0.140537 16.6722 0.413583C16.009 0.686629 15.4065 1.08683 14.899 1.59133L13.8458 2.63785L12.7926 1.59133C11.7675 0.572757 10.3772 0.000527962 8.92748 0.000527973C7.47779 0.000527984 6.08748 0.572757 5.0624 1.59133C4.03731 2.6099 3.46143 3.99139 3.46143 5.43187C3.46143 6.87235 4.03731 8.25383 5.0624 9.2724L6.11561 10.3189L13.8458 18L21.5759 10.3189L22.6292 9.2724C23.1369 8.76814 23.5396 8.16942 23.8144 7.51045C24.0892 6.85148 24.2307 6.14517 24.2307 5.43187C24.2307 4.71857 24.0892 4.01225 23.8144 3.35328C23.5396 2.69431 23.1369 2.09559 22.6292 1.59133Z" fill="#EB5757"/>
<g filter="url(#filter0_b_277_1698)">
<path d="M11.25 13.1543C11.0527 13.1541 10.859 13.102 10.6882 13.0033C10.5174 12.9046 10.3755 12.7627 10.2769 12.5918L8.35875 9.14376L7.1325 10.9831C7.02697 11.1353 6.8855 11.2591 6.72065 11.3434C6.5558 11.4278 6.37266 11.4702 6.1875 11.4668H1.125C0.826631 11.4668 0.540483 11.3483 0.329505 11.1373C0.118526 10.9264 0 10.6402 0 10.3419C0 10.0435 0.118526 9.75736 0.329505 9.54638C0.540483 9.33541 0.826631 9.21688 1.125 9.21688H5.58563L7.50375 6.34257C7.61091 6.18242 7.75742 6.05249 7.92922 5.96521C8.10102 5.87794 8.29236 5.83626 8.48489 5.84416C8.67743 5.85207 8.86471 5.90929 9.02877 6.01035C9.19284 6.11142 9.3282 6.25293 9.42188 6.42132L11.25 9.77937L14.1919 4.71698C14.2924 4.54279 14.4378 4.39873 14.6129 4.29981C14.788 4.20088 14.9864 4.1507 15.1875 4.1545C15.3838 4.15568 15.5764 4.20822 15.7462 4.3069C15.9159 4.40558 16.0568 4.54696 16.155 4.71698L18.8494 9.21688L19.9744 8.32815C20.1738 8.17339 20.4195 8.09018 20.6719 8.09191H25.875C26.1734 8.09191 26.4595 8.21043 26.6705 8.42141C26.8815 8.63238 27 8.91852 27 9.21688C27 9.51525 26.8815 9.80139 26.6705 10.0124C26.4595 10.2233 26.1734 10.3419 25.875 10.3419H21.0656L19.2375 11.7875C19.1115 11.8911 18.9646 11.9661 18.8067 12.0072C18.6489 12.0484 18.484 12.0547 18.3235 12.0258C18.163 11.997 18.0107 11.9335 17.8771 11.8399C17.7435 11.7463 17.6319 11.6247 17.55 11.4837L15.1875 7.49567L12.2231 12.5918C12.1245 12.7627 11.9826 12.9046 11.8118 13.0033C11.641 13.102 11.4473 13.1541 11.25 13.1543Z" fill="#CE8C98"/>
</g>
<defs>
<filter id="filter0_b_277_1698" x="-25" y="-20.8457" width="77" height="59" filterUnits="userSpaceOnUse" color-interpolation-filters="sRGB">
<feFlood flood-opacity="0" result="BackgroundImageFix"/>
<feGaussianBlur in="BackgroundImageFix" stdDeviation="12.5"/>
<feComposite in2="SourceAlpha" operator="in" result="effect1_backgroundBlur_277_1698"/>
<feBlend mode="normal" in="SourceGraphic" in2="effect1_backgroundBlur_277_1698" result="shape"/>
</filter>
</defs>
</svg>
